<?xml version="1.0" encoding="UTF-8"?>
<svg version="1.1" viewBox="0 0 2048 1152" width="1280" height="1280" xmlns="http://www.w3.org/2000/svg">
<path transform="translate(995,44)" d="m0 0 2 2v14l-3 6-11 13-10 14-1 2 9-9 9-11 3-3 3 1 1 4v10l-12 13-16 16-7 8-8 8-5 4-1 4h27l13-1 4-2 2-12 2-15 2-1 1 9-1 32-1 2 6 1v-19l1-22 2-1 2 26 7 2 39 3-1-5-19-19-7-8-16-17-5-4v-19l4 2 10 11 9 11 12 13 11 12 16 16 8 10 12 11 11 12 3 6-4-1-15-8-27-8-17-3-20-2 29 6 20 6 27 10 24 13 13 11 16 13 8 7-4-5-8-8-7-8-31-31-8-7-8-8-7-8-27-27-7-8-11-11-7-8-12-13-13-13-1-2-1-16 4 2 10 10 7 8 15 16 12 13 16 16 7 8 8 8 7 8 135 135 14 10 3-6 12-12 8-7 15-13 16-13 10-8h2l-2 5-24 26-9 11-9 10-7 8-6 8 6 7 9 10 7 8 13 14 7 8 9 10 7 9 11 13 11 14 12 14 11 13 13 15 9 10 12 13 7 8 11 12 7 8 13 13 7 8 14 15 15 15 7 8 8 11 6 5-6 7-46 46-14 16-6 5-7 8-8 8-7 8-26 26-9 11-9 10-9 12-8 10-9 11-10 12-10 13-7 8-8 7-9 10-10 13-9 9-4 6 1 4 9 10 12 13 7 8 16 13 3 4-4-2-11-9-12-11-13-12-12-9-5-1-9 7-7 9-14 14-8 7-11 11-11 9-7 7-11 9-15 14-7 7-8 7-7 7-11 9-15 14-42 42-5 9 5 1 23 12 10 8 4 6 1 10-2 10-6 18-7 10-7 7-10 6-13 4h-16l-12-5-11-8-5-9-2-6-1-11 2-10-1-11-3-1 3-14 1-1-1-11v-15l-2-7-2-4-1 2v32l2 10-1 13-6 3-3 2-6-2h-7v41l-2 13-1 2-5-1-5-6-1-4v-20l1-3v-20h-20l-12 3-4 31-5 23-2 1-6-4v-14l4-23 1-12v-2l-5-1-3-3-1-6 8-4 3-1 3-19 2-23 4-8-1-5-12-13-22-22-8-7-30-30-10-8-7-7-6-5v-2h-2l-7-8-13-13-6-5-7-8-10-11-7-8-10-9-7-6-6 1-11 9-10 8-14 12-28 22-2-1 24-24 7-8 16-16 6-5 6-8-4-6-8-7-13-12-24-24-9-11-9-10-9-11-12-14-7-9-11-13-9-11-17-17-9-11-8-9-8-7-8-8-9-11-11-11-7-8-36-36v-3l12-6h2l1-7 18-20 8-10 9-9 7-8 15-16 11-12 9-9 9-11 12-13 10-13 14-17 9-12 22-28 9-10 7-8 9-10 7-8 7-7 7-8 10-13 4-1 7 4-4-8-9-10-10-11-9-11-11-12-7-8-9-9-4-5 1-2 15 12 14 11 12 11 14 11 11 10h2l8-7 47-47 8-7 16-16 8-7 18-18 8-7 85-85 7-8 7-7 10-14zm-26 53m-1 1m-1 1m-1 1m-1 1m-1 1m-1 1m-1 1m-1 1m-1 1m-1 1m-1 1m-1 1m-1 1m-1 1m-1 1m-1 1m-1 1m-1 1m-1 1m-1 1m-1 1m-1 1m-1 1m-1 1m-1 1m-1 1m-1 1m-1 1-15 14-7 6-7 8-10 9-13 12-8 7-16 15-26 26-8 7-29 29 2 1 11-9 11-10 8-7 9-9 8-7 14-12 11-10 13-10 22-11 17-10-4-1-17 6 6-8 21-21 5-7 3-6zm65 25 4 1zm-34 1-22 4-11 4 3 1 15-2 7-1 20-4 4-2zm-44 11m61 1-22 3-24 5-15 5-16 8-11 6-12 9-13 11-10 9-11 9-11 10-11 9-44 44-4 5 1 5 7-1 6-5 4 2 10 13 11 12 9 9 7 8 11 12 9 10 12 13 11 11 6 9-1 4-4 5 1 3-5 2-3 7-3 30-3 32-2 28-14 14-11 14-11 12-13 11-12 7h-6l-2-3 2-10 11-31 13-46 8-34 4-23 2-19 8 7 12 10 5 3h7l-2-6-7-8-37-37-9-11-9-9-7-8-22-24-8 1-13 12-10 11-7 8-15 16-10 11-14 19-12 17-14 27-10 25-6 23-4 32-1 13v34l3 24 6 23 11 31 7 16 10 21 10 17 14 20 12 14 9 11 11 11 8 7 14 14 5 3h3v-61l-1-25v-67l4-26 3-11 5-5 11-7 3-1v11l-6 32-1 11v21l1 3 5-1 7-8 10-21 11-28 11-25 11-19 9-12 5-5 8 3 20 13 25 12 17 9 5 2h3l1 9v15l-2 23v21l3 16 5 13 12 24 11 20 10 25 11 28 6 12 15-40 16-39 14-26 4-10 4-18v-68l2-4 23-12 17-8 15-9 15-11 6 1 6 8 12 21 11 21 8 18 20 41 5 8 2 2h7l2-1 1-3v-23l-8-38-1-4v-10l5 1 10 9 7 15 4 21 1 10 2 124 1 22 2 2 12-9 13-12 9-10 10-11 7-8 11-14 9-13 12-21 8-16 10-23 7-22 5-23 2-13 2-21v-21l-2-24-4-23-7-28-8-23-11-24-10-18-14-19-11-14-12-14-9-11-12-13-14-14-6-2-9 8-7 8-9 10-15 16-18 20-9 11-19 19-7 6-3 5 2 3 6-1 13-9 10-10 2 5 4 29 8 37 9 36 7 24 11 28-2 5-4 1-10-3-14-6-10-9-14-19-11-14-2-3-4-53-3-33-3-10-6-8-3-5v-6l7-9 10-11 7-8 16-16 7-8 10-11 9-11 10-11 7-11 5 1 7 3h5l1-4-6-9-13-12-13-13-8-7-21-21-8-7-14-13-11-9-14-11-15-10-17-8-25-8-17-4-27-3zm169 56m1 1m-358 39m-38 18m-92 134-6 9-6 14 1 2 6-8 5-12 1-5zm671 34 1 6 1-4zm2 6 1 3zm1 3 2 12 3 3-1-7-3-8zm-717 5-8 8v2l4-2 6-7zm-9 10m-1 1m-1 1m-1 1m-2 1 1 2 1-2zm-1 2m14 2-5 4-4 5-8 7-8 8-9 11-27 27-3 2v3l9 3h48l2-1 2-11 5-42v-14zm747 7 1 24 4 35 3 4 4 1h17l26-2 9-2-14-14-7-8-9-10-18-18-10-8zm-733 28m-1 9v18h1l1-8-1-10zm-91 19m5 1m314 3-5 8-8 16-9 20-8 16-12 25-8 16-13 24-6 18-7 39-3 23-2 35 4 8 10 11 7 8 22 22 11 9 13 12 17 13 21 12 21 10 21 7 24 6 22 3 19 1h4l35-3 26-5 24-8 18-8 17-9 19-12 17-13 11-9 11-10 8-7 11-11 7-8 9-10 1-2v-10l-6-43-5-26-7-26-8-20-13-24-14-27-7-16-13-23-7-15-8-16-5-1-13 7-19 14-11 9-14 9v7l5 16 6 31 4 12 1 8v10l-4 8-14 18-13 19-6 10-15 28-11 23-15 45-7-2-7-17-8-23-14-30-9-19-8-12-11-17-11-14-14-18-2-6 1-12 8-26 6-26 3-7-1-5-22-15-12-10-16-11-8-4zm-227 8v17l2 14 2 2-2-32zm-63 3-5 2 2 5 8 10 9 10 8 10 9 10 10 12 7 8 4 3h2l2-3-1-11-5-25-4-23-3-6-1-1-17-1zm802 1-2 7-3 25v19l1 11 17-17 11-14 20-26 1-3-2-2zm66 6-14 12-12 12-9 10-12 11-17 16-5 4-6 6-6 9 1 5 5-3 29-29 5-6 6-5 7-8 19-19 3-7 7-6zm-801 27m1 7 1 2zm2 0 1 2zm1 3 1 3zm-2 2 1 4zm3 4m-2 1v8l3 19 10 25 11 19 3 2 1-7-4-9-5-13-3-10-4-7-7-18-3-4-1-5zm703 0-3 9-1 1-1 11-4-1 1 13h-2l-7 24-9 19-6 14 1 3 7-8 6-9 10-22 6-21 4-20-1-13zm14 41m-1 1m-51 57-2 4h2l2-4zm-3 4m-3 5m-1 2m-1 1m-1 1m-8 9m-1 1m-1 1m-1 1m-9 13m-1 1m-2 1m-26 31m-1 1-11 9-3 6v4l5-2 5-5 5-10zm-30 33m-1 1m-2 1-2 2h-3l-17 16-7 10h3l14-12 12-12 2-4zm-91 82-4 4h-3l-11 9-12 11-10 10-8 7-15 15-8 7-9 9-7 8-12 13-7 7 1 4 4-1 1-6 12-11v-2h2l1 2 11-10 8-7 7-7 11-9 13-12 9-11 19-19 7-8 2-3zm-4 1m-1 1m-228 19 1 4 3-1-2-3zm35 1m3 0-1 2 2 3-1 2-3 1 7 8 23 23 9 11 11 13 7 6h2v-49l-1-10-5-3-27-4h-6l4 1v2l-6-2 1-2h-8l-5-2zm9 1m-37 3v2h-2l2 5 7 7 7 8 9 10 8 7 4-1 2 1-2-5-9-10-19-19h-2l-1-3zm-3 1m110 0-1 1-2 32v14l1 21 8-6 35-35 11-12 6-7 1-4h-11l-10 2-37 4v-8h2v-2zm-14 37 1 5 2 3-1-7zm-56 1m-3 2m1 1m1 1m1 1m3 3m1 1m1 1m-12 7 1 3-2 5-1 6v33h23l6-2 2-3v-16l-4-6-9-9-10-8-4-3zm92 18m-6 2-1 4 2-1zm28 11-8 4-11 8-7 6-7 12-2 13 1 15 4 9 4 5 7 3h13l11-4 10-7 10-9 6-10 3-9v-21l-4-6-8-4-13-1-3-4z" fill="#9B724A"/>
<path transform="translate(995,44)" d="m0 0 2 2v14l-3 6-11 13-10 14-1 2 9-9 9-11 3-3 3 1 1 4v10l-12 13-16 16-7 8-8 8-5 4-1 4h27l13-1 4-2 2-12 2-15 2-1 1 9-1 32-1 2 6 1v-19l1-22 2-1 2 26 7 2 39 3-1-5-19-19-7-8-16-17-5-4v-19l4 2 10 11 9 11 12 13 11 12 16 16 8 10 12 11 11 12 3 6-4-1-15-8-27-8-17-3-20-2 29 6 20 6 27 10 24 13 13 11 16 13 8 7-4-5-8-8-7-8-31-31-8-7-8-8-7-8-27-27-7-8-11-11-7-8-12-13-13-13-1-2-1-16 4 2 10 10 7 8 15 16 12 13 16 16 7 8 8 8 7 8 135 135 14 10 3-6 12-12 8-7 15-13 16-13 10-8h2l-2 5-24 26-9 11-9 10-7 8-6 8 6 7 9 10 7 8 13 14 7 8 9 10 7 9 11 13 11 14 12 14 11 13 13 15 9 10 12 13 7 8 11 12 7 8 13 13 7 8 14 15 15 15 7 8 8 11 6 5-6 7-5 4 2-8h-14l-6 3-14 14-7 8-6 7-15 15-8 7-8 8-8 7-7 6-4 4h-2l1-6 1-2 1-16h1l1 10 11-12 10-11 12-16 7-9 6-8 1-3-1-1-43-1-2-1v-2h-7v-3l2-3 9-1 4 1h17l26-2 8-2-10-9-12-13-7-8-18-18-10-8-2-2-6-7-4-2 1 33v40l-1 3-2 29-2 9-3 1v-8l-1-6-1-48-3-32-3-17-2-2-2-9-1-7-1-2 3 21 4 29 1 14v35l-2 21-4 17-1 7v5l-4 5 2 6 1 4-1 3-4-1v9l-2-2-3 7-7 20-8 19-8 13-13 19-12 16-11 10-7 8-9 10-7 8-9 9-11 9-4 1-1-4 7-9 11-9 16-17 7-8 9-10 10-13 9-13 12-21 8-16 10-23 7-22 5-23 2-13 2-21v-21l-2-24-4-23-7-28-8-23-11-24-10-18-14-19-11-14-12-14-9-11-12-13-13-13-6-2-8 7-7 8-9 10-15 16-18 20-9 11-20 20-6 5-3 5 1 2 6-1 13-9 10-10 2 2 3 21 6 32 10 42 9 32 8 21 4 10-2 5-2 2-11-2-16-7-11-10-14-19-11-14-2-3-4-53-3-33-3-10-6-8-3-5v-6l7-9 10-11 7-8 16-16 7-8 10-11 9-11 10-11 8-12 5 1 7 3 5 1-1-6-6-8-10-9-14-14-8-7-21-21-8-7-14-13-11-9-14-11-15-10-17-8-25-8-17-4-27-3h-19l-22 3-24 5-15 5-16 8-11 6-12 9-13 11-10 9-11 9-11 10-11 9-37 37-10 11v4l7-1 6-5 5 3 10 13 11 12 9 9 7 8 11 12 9 10 12 13 11 11 6 9-1 4-4 5v3l-4 2-3 7-3 30-3 32-2 28-4 5-8 7-14 17-9 10-11 10-14 9-2 1h-6l-3-4 2-10 11-31 13-46 8-34 4-23 2-17 1-2 4 2 13 12 8 5 7 1-5-9-42-42-9-11-9-9-7-8-11-12-10-11-8 1-13 12-9 10-7 8-15 16-10 11-14 19-12 17-14 27-10 25-6 23-4 32-1-4h-7l-2 4-1 9h-1v-15l3-23 3-16 7-23 6-15 7-21-7 12-4 10-2 1-10 28-4 13-9 1h-3l-1-3-3 2-6 7-6 5-2 2-3-2 4-7 8-10 7-7 4-6 4-7-8 6v3l-4 2-10 11h-2l-1 3-4 2-11 11-7 8-30 30-8 7-3 3h-7v-3l7-8 10-11 8-10 9-9 7-8 15-16 11-12 9-9 9-11 12-13 10-13 14-17 9-12 22-28 9-10 7-8 9-10 7-8 7-7 7-8 10-13 4-1 7 4-4-8-9-10-10-11-9-11-11-12-7-8-9-9-4-5 1-2 15 12 14 11 12 11 14 11 11 10h2l8-7 47-47 8-7 16-16 8-7 18-18 8-7 85-85 7-8 7-7 10-14zm-26 53m-1 1m-1 1m-1 1m-1 1m-1 1m-1 1m-1 1m-1 1m-1 1m-1 1m-1 1m-1 1m-1 1m-1 1m-1 1m-1 1m-1 1m-1 1m-1 1m-1 1m-1 1m-1 1m-1 1m-1 1m-1 1m-1 1m-1 1m-1 1-15 14-7 6-7 8-10 9-13 12-8 7-16 15-26 26-8 7-29 29 2 1 11-9 11-10 8-7 9-9 8-7 14-12 11-10 13-10 22-11 17-10-4-1-17 6 6-8 21-21 5-7 3-6zm65 25 4 1zm-34 1-22 4-11 4 3 1 15-2 7-1 20-4 4-2zm-44 11m230 57m1 1m-358 39m-38 18m579 168 1 6 1-4zm2 6 1 3z" fill="#FDECB6"/>
<path transform="translate(1347,467)" d="m0 0 2 1 3 10h2l4 28 2 23 1 48 1 12-1 2 2-1 2-9 2-29 1-3v-40l-1-33h3l8 7 1 2-5-1 4 44 2 15 1 3-8 2-2 4 7 1v2h2l-4 33-1 35-2 4-2 8-6 9 2 1 4-2 28-28 6-7 5-4 7-8 19-19 4-8 6-5-3 2-5 4-2-1 16-16 5-2h12l2 1-1 6-3 5-39 39-14 16-6 5-7 8-8 8-7 8-26 26-9 11-9 10-9 12-8 10-9 11-10 12-10 13-7 8-8 7-9 10-10 13-9 9-4 6 1 4 9 10 12 13 7 8 16 13 3 4-4-2-11-9-12-11-13-12-12-9-5-1-9 7-7 9-14 14-8 7-11 11-11 9-7 7-11 9-15 14-7 7-8 7-7 7-11 9-15 14-42 42-5 9 5 1 23 12 10 8 4 6 1 10-2 10-6 18-7 10-7 7-10 6-13 4h-16l-12-5-11-8-5-9-2-6-1-11 2-10-1-11-3-1 3-14 1-1-1-11v-15l-2-7-2-4-1 2v32l2 10-1 13-6 3-3 2-6-2h-7v41l-2 13-1 2-5-1-5-6-1-4v-20l1-3v-20h-20l-12 3-4 31-5 23-2 1-6-4v-14l4-23 1-12v-2l-5-1-3-3-1-6 8-4 3-1 3-19 2-23 4-8-1-5-12-13-22-22-8-7-30-30-10-8-7-7-6-5v-2h-2l-7-8-13-13-6-5-7-8-10-11-7-8-10-9-7-6-8 1 6-7 9-9 5-4 4 2 43 43 8 7 9 9 11 9 11 8 18 11 16 8 21 9 19 6 21 5 20 3 17 1 2-4h4l35-3 26-5 24-8 18-8 17-9 19-12 17-13 11-9 11-10 8-7 10-10 7-8 9-10 1-2v-17l2-1 1-3 5 1v-73h1l1 15 1 39 1 22h2l5-2-4 6v3l4-1 15-13 10-10 7-8 9-10 7-8 6-5 14-19 10-15 9-15 13-33 4-12h2v-8h1l2 8-1 7h-2l-3 15-6 16-6 12-6 15 8-8 8-16 6-13 6-21 4-20v-7l-1-3-4 11-2 1-2-7 4-5v-10l4-16 2-12 1-12v-35l-2-22-4-28zm18 180m-1 1m-51 57-2 4h2l2-4zm-3 4m-3 5m-1 2m-1 1m-1 1m-8 9m-1 1m-1 1m-1 1m-9 13m-1 1m-2 1m-26 31m-1 1-11 9-3 6v4l5-2 5-5 5-10zm-30 33m-1 1m-2 1-2 2h-3l-17 16-7 10h3l14-12 12-12 2-4zm-91 82-4 4h-3l-11 9-12 11-10 10-8 7-15 15-8 7-9 9-7 8-12 13-7 7 1 4 4-1 1-6 12-11v-2h2l1 2 11-10 8-7 7-7 11-9 13-12 9-11 19-19 7-8 2-3zm-4 1m-1 1m-228 19 1 4 3-1-2-3zm35 1m3 0-1 2 2 3-1 2-3 1 7 8 23 23 9 11 11 13 7 6h2v-49l-1-10-5-3-27-4h-6l4 1v2l-6-2 1-2h-8l-5-2zm9 1m-37 3v2h-2l2 5 7 7 7 8 9 10 8 7 4-1 2 1-2-5-9-10-19-19h-2l-1-3zm-3 1m110 0-1 1-2 32v14l1 21 8-6 35-35 11-12 6-7 1-4h-11l-10 2-37 4v-8h2v-2zm-14 37 1 5 2 3-1-7zm-56 1m-3 2m1 1m1 1m1 1m3 3m1 1m1 1m-12 7 1 3-2 5-1 6v33h23l6-2 2-3v-16l-4-6-9-9-10-8-4-3zm92 18m-6 2-1 4 2-1zm28 11-8 4-11 8-7 6-7 12-2 13 1 15 4 9 4 5 7 3h13l11-4 10-7 10-9 6-10 3-9v-21l-4-6-8-4-13-1-3-4z" fill="#392419"/>
<path transform="translate(995,44)" d="m0 0 2 2v14l-3 6-11 13-10 14-11 12-25 25-8 7-9 8-7 8-24 22-8 7-16 15-26 26-8 7-28 28 5-3 14-12 2 1-17 16-35 35-1 4 9 9 6 9 7 6v2l3 1 4 5 13 10 17 16 39 39 10 7h3l-14-11-11-12-14-15-7-8-11-12-16-17-11-12-10-10-2-5 7-2 6-5 5 3 10 13 11 12 9 9 7 8 11 12 9 10 12 13 11 11 6 9-1 4-4 5v3l-4 2-3 7-3 30-3 32-2 28-4 5-8 7-14 17-9 10-11 10-14 9-2 1h-6l-3-4 2-10 11-31 13-46 8-34 4-23 2-17 1-2 4 2 13 12 8 5 7 1-5-9-42-42-9-11-9-9-7-8-11-12-10-11-8 1-13 12-9 10-7 8-15 16-10 11-14 19-12 17-14 27-10 25-6 23-4 32-1-4h-7l-2 4-1 9h-1v-15l3-23 3-16 7-23 6-15 7-21-7 12-4 10-2 1-10 28-4 13-9 1h-3l-1-3-3 2-6 7-6 5-2 2-3-2 4-7 8-10 7-7 4-6 4-7-8 6v3l-4 2-10 11h-2l-1 3-4 2-11 11-7 8-30 30-8 7-3 3h-7v-3l7-8 10-11 8-10 9-9 7-8 15-16 11-12 9-9 9-11 12-13 10-13 14-17 9-12 22-28 9-10 7-8 9-10 7-8 7-7 7-8 10-13 4-1 7 4-4-8-9-10-10-11-9-11-11-12-7-8-9-9-4-5 1-2 15 12 14 11 12 11 14 11 11 10h2l8-7 47-47 8-7 16-16 8-7 18-18 8-7 85-85 7-8 7-7 10-14z" fill="#9B734B"/>
<path transform="translate(1e3 45)" d="m0 0 4 2 10 10 7 8 15 16 12 13 16 16 7 8 8 8 7 8 135 135 14 10 3-6 12-12 8-7 15-13 16-13 10-8h2l-2 5-24 26-9 11-9 10-7 8-6 8 6 7 9 10 7 8 13 14 7 8 9 10 7 9 11 13 11 14 12 14 11 13 13 15 9 10 12 13 7 8 11 12 7 8 13 13 7 8 14 15 15 15 7 8 8 11 6 5-6 7-5 4 2-8h-14l-6 3-14 14-7 8-6 7-15 15-8 7-8 8-8 7-7 6-4 4h-2l1-6 1-2 1-16h1l1 10 11-12 10-11 12-16 7-9 6-8 1-3-1-1-43-1-2-1v-2h-7v-3l2-3 9-1 4 1h17l26-2 8-2-10-9-12-13-7-8-18-18-10-8-2-2-6-7-4-2 1 33v40l-1 3-2 29-2 9-3 1v-8l-1-6-1-48-3-32-3-17-2-2-2-9-1-7-1-2 3 21 4 29 1 14v35l-2 21-4 17-1 7v5l-4 5 2 6 1 4-1 3-4-1v9l-2-2-3 7-7 20-8 19-8 13-13 19-12 16-11 10-7 8-9 10-7 8-9 9-11 9-4 1-1-4 7-9 11-9 16-17 7-8 9-10 10-13 9-13 12-21 8-16 10-23 7-22 5-23 2-13 2-21v-21l-2-24-4-23-7-28-8-23-11-24-10-18-14-19-11-14-12-14-9-11-12-13-13-13-6-3 3-7 4-6-7-8-39-39-8-7-2-4-4-2-30-30h3l10 9-4-5-8-8-7-8-31-31-8-7-8-8-7-8-27-27-7-8-11-11-7-8-12-13-13-13-1-2zm154 174m1 1m183 225 1 6 1-4zm2 6 1 3z" fill="#997048"/>
<path transform="translate(995,179)" d="m0 0h3l-1 13-1 33v52l-1 26-7 49-5 28-7 27-6 28-6 40-1 14-1 34-1 3-4-2-11-10-17-13-10-6-7-2-8 1-17 7-5 1v-15l2-17 1-33 4-20 11-18 12-16 12-17 20-30 11-21 10-28 10-35 9-35 8-31z" fill="#F8DAB2"/>
<path transform="translate(1e3 182)" d="m0 0 4 4 5 19 6 29 8 30 10 30 9 21 16 27 12 17 13 17 8 10 9 13 8 16 4 16 2 32 2 27 1 10-7-1-15-5-5-1h-8l-17 9-12 9-11 12-5 6-2-1-1-38-2-26-4-28-10-57-9-50-6-30-1-8-1-37z" fill="#F9DBB2"/>
<path transform="translate(666,427)" d="m0 0 1 2-5 11-9 27-3 13-2 12-2 18v6l3-5 7 1v51l1 19h-2v8h-3l2 14 6 23 3 11-3-2-7-19-4-6 3 22 10 25 11 19 1 1 1-6-4-9-5-13 1-3 11 24 14 26 10 15 10 13 6 8 9 10 4 2 1-2 13 12h-3l-2-1 4 6 9 9 9 7 5 5 3 4-3 3h-3l-2 4-6 5-5-6-8-7-13-12-24-24-9-11-9-10-9-11-12-14-7-9-11-13-9-11-17-17-9-11-8-9-8-7-8-8-9-11-11-11-7-8-36-36v-3l12-6h2l1-6h8l9-9 8-7 29-29 7-8 8-8 4-1 13-12 1-2h2v-2l-2-1 7-6h2l-2 6-4 5-14 16-5 7-1 3 2 1-1 3-8 7-9 10-7 8-23 23-2 1-1 3 9 2h50l4-38 2-15v-14l-1-4 4-1 3 3 5-1h5l2-10 9-26 3-7 2 2zm-25 85m-1 9v18h1l1-8-1-10zm-91 19m5 1m87 11v17l2 14 2 2-2-32zm-63 3-5 2 2 5 8 10 9 10 8 10 9 10 10 12 7 8 4 3h2l2-3-1-11-5-25-4-23-3-6-1-1-17-1zm67 34m1 7 1 2zm2 0 1 2zm1 3 1 3zm-2 2 1 4z" fill="#372218"/>
<path transform="translate(866,530)" d="m0 0 8 3 20 13 25 12 17 9 8 3 2 9v15l-2 23v21l3 16 5 13 12 24 11 20 6 15-2 4-8-13-8-16-11-20-7-10-7-6-16-8-8-5 1-7 7-23 6-26 3-7-1-5-21-14-12-10-16-11-8-4h-5l-10 18-10 23-8 17-8 16-9 19-12 22-7 14-5 17-6 35-3 23-2 35 4 8 10 11 7 8 21 21 11 9 13 12 17 13 21 12 21 10 21 7 24 6 22 3 18 1-1 5-17-1-30-5-24-7-16-6-18-8-16-9-21-14-10-9-8-7-9-9-8-7-39-39-4 2-10 9-7 7v2l-20 16-14 12-28 22-2-1 24-24 7-8 16-16 6-5 6-8 8-7 1-2 5-3-5-7-6-4-13-12-5-6v-2h3l-11-10-3 1-8-7-9-11-8-11-10-14-10-18-12-23-5-12v-2h-2l-3-9-3-11-7-27-1-10 2-2 1 1 1-7 3-1 4 18 8 26 10 26 13 27 10 17 14 20 12 14 9 11 10 10 8 7 14 14 8 4-1-61-1-25v-67l4-26 3-11 4-5 13-8h3l1 3v8l-6 32-1 11v24l6-3 6-8 9-19 11-28 11-25 11-19 9-12 4-5z" fill="#99714A"/>
<path transform="translate(1199,297)" d="m0 0 5 1 7 3 5 1-4 7-6 8 5-3 5-1 6 2-6 8-16 17-12 13-11 12-7 8-12 14-18 18-6 5-3 5 1 2 6-1 13-9 10-10 2 2 3 21 6 32 10 42 9 32 8 21 4 10-2 5-2 2-11-2-16-7-11-10-14-19-11-14-2-3-4-53-3-33-3-10-6-8-3-5v-6l7-9 10-11 7-8 16-16 7-8 10-11 9-11 10-11z" fill="#F8DAB1"/>
<path transform="translate(997,383)" d="m0 0 2 4 7 33 3 22 7 85 1 32-1 27-3 27-2 15-2 33-2 9-3-3-7-21-8-26-7-20-1-5-1-19v-21l3-24 3-28 7-72 3-47z" fill="#9B724A"/>
<path transform="translate(914,652)" d="m0 0 19 9 10 7 7 8 13 23 8 16 8 14 2-3 7 18 10 24 3 7 6-18 5-13 3-1 8-15 8-18 20-38 9-9 14-7 9-3 1 4v10l-4 8-14 18-13 19-6 10-15 28-11 23-12 36-4 10-7-2-5-10-11-31-14-30-9-19-8-12-11-17-11-14-14-18-2-6z" fill="#362218"/>
<path transform="translate(840,397)" d="m0 0 4 2 13 12 8 5 10 2v8l-2 9-3 21-2 18-2 16-3 11-12 17-11 13-9 10-6 5-5 7-10 7-7 1-4-1 2-10 11-31 13-46 8-34 4-23 2-17z" fill="#F9DBB2"/>
<path transform="translate(1e3 182)" d="m0 0 4 4 5 19 6 29 8 30 10 30 9 21 16 27 12 17 13 17 8 10 9 13 8 16 3 12-2-1v-2l-12 2-11 6-10 6-5 4-7-1-4-8-7-25-5-23-7-28-5-18-3-13-4-14-9-14-4-8-5-18-4-18-4-24-1 24h-1z" fill="#FEF2DB"/>
<path transform="translate(1237,302)" d="m0 0 3 1 9 11 12 12 7 8 11 12 7 8 12 15 15 22 10 17 5 9v2h2l7 17 8 24h2l3 21 4 29 1 14v35l-2 21-4 17-1 7v5l-4 5 2 6 1 4-1 3-4-1v9l-2-2-3 7-7 20-8 19-8 13-13 19-12 16-11 10-7 8-9 10-7 8-9 9-11 9-4 1-1-4 7-9 11-9 16-17 7-8 9-10 10-13 9-13 12-21 8-16 10-23 7-22 5-23 2-13 2-21v-21l-2-24-4-23-7-28-8-23-11-24-10-18-14-19-11-14-12-14-9-11-12-13-13-13-4-3z" fill="#9C734B"/>
<path transform="translate(995,179)" d="m0 0h3l-1 13-1 33v52l-2 16-2 2-5-1-2-6-6 1-7 8-12 21-6 18-5 16-4 19-4 15-7 33-5 19-2 4-7-1-21-11-7-6-3-1-1-3 5-10 10-15 9-12 12-17 20-30 11-21 10-28 10-35 9-35 8-31z" fill="#FEF3DB"/>
<path transform="translate(1006,70)" d="m0 0 4 2 10 11 9 11 12 13 11 12 16 16 8 10 12 11 11 12 3 6-4-1-15-8-27-8-17-3-20-2 24 5v1l-39-3-2 2-4-1-7-1-19 1 4-2 8-2h-12l-22 4-8 3 16-1v1l-18 4-18 6-2-1 7-4-9 2-11 3 2-5 24-24 5-7 4-8 39-39 9-11 3-3 3 1 1 4v10l-12 13-16 16-7 8-8 8-5 4-1 4h27l13-1 4-2 2-12 2-15 2-1 1 9-1 32-1 2 6 1v-19l1-22 2-1 2 26 7 2 39 3-1-5-19-19-7-8-16-17-5-4zm0 80 4 1z" fill="#F9DCB4"/>
<path transform="translate(995,44)" d="m0 0 2 2v14l-3 6-11 13-10 14-11 12-25 25-8 7-9 8-7 8-24 22-8 7-16 15-26 26-8 7-29 29-8 7-12 12-7 8-7 7-3 1-6-4-6-8-10-10-8-10-12-14-14-15-10-11 1-2 15 12 14 11 12 11 14 11 11 10h2l8-7 47-47 8-7 16-16 8-7 18-18 8-7 85-85 7-8 7-7 10-14z" fill="#FDEDB8"/>
<path transform="translate(1e3 45)" d="m0 0 4 2 10 10 7 8 15 16 12 13 16 16 7 8 8 8 7 8 135 135 14 10 3-6 12-12 8-7 15-13 16-13 10-8h2l-2 5-24 26-9 11-9 10-7 8-6 8h-2l-6 7-4-1-23-23-8-7-40-40-9-7-12-12-7-8-31-31-8-7-8-8-7-8-27-27-7-8-11-11-7-8-12-13-13-13-1-2z" fill="#FEF1D8"/>
<path transform="translate(1249,291)" d="m0 0 3 1 9 11 22 24 7 8 9 10 7 9 11 13 11 14 12 14 11 13 13 15 9 10 12 13 7 8 11 12 7 8 13 13 7 8 14 15 15 15 6 7v2h-3v-2l-4-2-8-6-8-4-11-9-8-8-8-7-44-44h-21l-3-3-2-5-4-9-3-9-8-16-9-16-17-25-12-16-7-8-11-12-9-11-21-21 1-5z" fill="#F9DBB2"/>
<path transform="translate(1370,453)" d="m0 0 6 3 45 45 8 7 10 9 8 5 8 4 7 6v2l4-1 8 11 6 5-6 7-5 4 2-8h-14l-6 3-14 14-7 8-6 7-15 15-8 7-8 8-8 7-7 6-4 4h-2l1-6 1-2 1-16h1l1 10 11-12 10-11 12-16 7-9 6-8 1-3-1-1-43-1-2-1v-2h-7v-3l2-3 9-1 4 1h17l26-2 8-2-10-9-5-6v-6l-4-3-1-4 1-3-7-8-13-13-7-8-12-14-10-14z" fill="#9A724B"/>
<path transform="translate(1199,297)" d="m0 0 5 1 7 3 5 1-4 7-6 8 5-3 5-1 6 2-6 8-16 17-12 13-11 12-7 8-12 14-18 18-6 5-3 5 1 3-6-2-6-8-5-8v-6l7-9 10-11 7-8 16-16 7-8 10-11 9-11 10-11z" fill="#9B724B"/>
<path transform="translate(1126,530)" d="m0 0 6 1 7 9 12 21 11 21 8 18 18 37-2 3-5-8-13-28-16-33-11-23-9-12-2-2-5 1-3 4 6-1 1 3-2 2-3 2-13 7-19 14-11 9-13 8v7l5 16 6 31 4 12v4l-20 9-10 9-6 10-31 62h-3l3-9 12-30 8-16 11-21 5-18 1-6v-68l3-5 23-12 17-8 15-9z" fill="#F5D8B0"/>
<path transform="translate(866,530)" d="m0 0 8 3 20 13 25 12 17 9 8 3 2 9v15l-2 23v21l3 16 5 13 12 24 11 20 6 15-2 4-8-13-8-16-11-20-7-10-7-6-16-8-8-5 1-7 7-23 6-26 3-7h2l2-6 1-4-21-11-19-14-12-8-12-9-6-1-2 4-19 39-10 20-6 8-4 4-3-1 10-25 9-20 10-17 9-12 4-5z" fill="#F9DCB4"/>
<path transform="translate(991,156)" d="m0 0h3l1 3h9v-1h29l19 3 24 6 19 7 24 13 13 11 11 9 7 8 30 30 16 15 37 37 1 3-5 6-4 8-7 1-6-1-5 4-2-1 6-8 4-6 1-5-6-9-12-11-13-13-8-7-21-21-8-7-14-13-11-9-14-11-15-10-17-8-25-8-17-4-27-3-13-2-5-2z" fill="#FDEDB7"/>
<path transform="translate(931,975)" d="m0 0 5 3 2 3-2 9-1 33 23-1 6-2 1-2v-18h1l1-15 3-1 5 4 1 9v25h13l3 1 2 10-3 3-6-2h-7v41l-2 13-1 2-5-1-5-6-1-4v-20l1-3v-20h-20l-12 3-4 31-5 23-2 1-6-4v-14l4-23 1-12v-2l-5-1-3-3-1-6 8-4 3-1 3-19 2-23z" fill="#9A7149"/>
<path transform="translate(997,383)" d="m0 0 2 4 7 33 3 22 6 74-2 39-2 42-4 16-3 6-2-1-3-11-3-18v-22l2-21 4-21v-95l-2-13h-1l-2 34-1 15-1 7-1 31-2 7-1 13-3 4h-4l4-46 5-51 3-47z" fill="#F8DBB2"/>
<path transform="translate(800,572)" d="m0 0h3l1 4-3 9-5 21-2 12v22l2 11h8l-3 12-3 11 1 5-6 24-6 35-3 8-2-1-2-16-2-42-2-17v-48l4-26 3-11 4-5z" fill="#F8DAB1"/>
<path transform="translate(825,954)" d="m0 0h10l33 4 24 4 4 2v5l-1 1h-24l-1 5 5-1 5 5 1 3v11l-3 6-5 4-5 1-1 15v42l1 17-2 6-1 1h-6l-3-2-4-12 1-35v-52l-1-15-24-6-5-4v-4z" fill="#997049"/>
<path transform="translate(647,983)" d="m0 0 7 1 2 6 3 12 8 22 7 21 4 4 6 4 2 6-4 4 1 8 7 17 8 19-1 5h-5l-6-7-10-24-7-18-4-4h-35l-5 5-10 20-5-1-1-3 6-18 13-26 12-32 5-12 1-8zm2 22-4 10-3 12-6 17v2l6 1h19l1-2v-9l-4-15-7-16z" fill="#9C734C"/>
<path transform="translate(1197,571)" d="m0 0 5 1 10 9 8 16 3 15-1 77-2 22-2 13h-3l-10-33-7-24-4-11v-4l11-2v-26l-8-38-1-4v-10z" fill="#F8DAB1"/>
<path transform="translate(753,292)" d="m0 0 6 2 2 4-1 4-13 13-7 8-12 13-11 12-9 11-9 9-8 11-12 17-8 12-6 11-8 13-2 4h-8l-6 4-4 5h-2l-2 6-19 19-6-1-6 4-14 14v-3l9-10 14-15 8-8 9-11 12-13 10-13 14-17 9-12 22-28 9-10 7-8 9-10 7-8 7-7 7-8 10-13z" fill="#F8DBB1"/>
<path transform="translate(1129,984)" d="m0 0h6l6 4 1 1h16l15 2 13 5 11 6 3 4v11l-6 10-10 9-16 9-4 3h-2l7 8 16 13 9 7 7 6 1 3h-6l-9-5-13-10-14-11-7-6-8 1-2 2v29l-1 2h-6l-4-3-1-4v-22l-5-2-3-3v-2l6-2 1-1v-15l-3-31-1-4 1-10zm16 11-6 3-1 1v11l2 20 2 13 1 1h8l23-11 10-8 4-5 2-4v-11l-4-5-10-4-6-1z" fill="#9B724A"/>
<path transform="translate(1006,70)" d="m0 0 4 2 10 11 9 11 12 13 11 12 16 16 8 10 12 11 11 12 3 6-4-1-15-8-27-8-17-3-19-2h-7l-8-1-2-6 1-33 2-1 2 26 7 2 39 3-1-5-19-19-7-8-16-17-5-4z" fill="#FDEDB7"/>
<path transform="translate(736,984)" d="m0 0 6 1 4 4h18l17 3 13 5 9 6 4 6 1 4-9 15-8 7-14 8-8 5 1 4 10 8 13 11 8 7-1 2-5 1-14-10-13-11-10-7h-6l-4 4 2 21v6l-2 3h-5l-4-3-1-4v-21l-3-4 1-4 1-2v-12l-2-28-2-7-6 1h-9l-1-5 5-3 10-3 3-7zm13 11-6 3v12l2 17 2 15 5 3 10-2 20-11 12-11 3-7v-8l-5-6-11-4-6-1z" fill="#9C744C"/>
<path transform="translate(990,323)" d="m0 0h1v10l-7 42-6 25-4 15-7 38-3 22-1 14-1 34-1 3-4-2-11-10-17-13-10-6-7-2-8 1-17 7-5 1v-15l2-12h2l6 11 7-1 17-8 6-2h6l9 11 8 10 6 7 4-1 4-30 3-27 4-19 2-13 4-16 6-26 9-36 2-10z" fill="#9D744D"/>
<path transform="translate(1e3 45)" d="m0 0 4 2 10 10 7 8 15 16 12 13 16 16 7 8 8 8 2 5 26 26v2l4 2 14 14 8 10 7 7 9 11 1 1v7l11 11h-3l-10-9-8-8-7-8-31-31-8-7-8-8-7-8-27-27-7-8-11-11-7-8-12-13-13-13-1-2z" fill="#FDEDB6"/>
<path transform="translate(1025,373)" d="m0 0 1 2h2l1 2 1 11 2 7 3 17 5 25 5 43 1 22 6-3 6-7 10-16 1-1 9 1 17 6 13 4h3l2-8 2 1 1 9 2-4 2 16-7-1-15-5-5-1h-8l-17 9-12 9-11 12-5 6-2-1-1-38-2-26-4-28-3-16 1-11-2-13h-1l-2-12v-7z" fill="#9C744C"/>
<path transform="translate(1056,996)" d="m0 0 17 8 11 7 7 6 3 5 1 10-2 10-6 18-7 10-7 7-10 6-13 4h-16l-12-5-11-8-5-9-2-6 1-14 3-9 1-8 5-3 5-7 8-7 11-8 10-5zm-5 11-8 4-11 8-7 6-7 12-2 13 1 15 4 9 4 5 7 3h13l11-4 10-7 10-9 6-10 3-9v-21l-4-6-8-4-13-1-3-4z" fill="#997049"/>
<path transform="translate(1237,302)" d="m0 0 3 1 9 11 12 12 7 8 11 12 7 8 12 15 15 22 10 17 7 14 5 15-1 4-5-4-4 1-2 1-9-20-9-17-10-14-10-13-8-10-11-13-9-11-12-13-13-13-4-3z" fill="#F8DAB1"/>
<path transform="translate(1298,980)" d="m0 0 10 3 8 6 4 8 1 6v11l-1 14-5 11-9 28-4 7-11 9-8 3h-18l-9-3-7-6-4-11-2-8v-66l1-1h8l2 1-1 40v20l3 17 5 8 5 4h7l10-5 8-8 10-17 6-13 4-14 1-6v-18l-3-7-12-9-1-3z" fill="#987049"/>
<path transform="translate(1372,986)" d="m0 0h9l3 3v6l-12 1-20 8-6 5-3 5 2 5 10 6 25 10 11 6 8 7 5 10v9l-3 5-8 5-16 5-23 3h-12l-5-4-1-4 1-1 23-3 20-4 14-7 1-2v-6l-5-4-27-12-14-7-8-7-4-8-1-3v-8l4-5 13-8 11-4z" fill="#9C734C"/>
<path transform="translate(671,407)" d="m0 0 2 4-4 4-5 9-4 10-2 1-10 28-4 13-9 1h-3l-1-3-3 2-6 7-6 5-2 2-3-2 4-7 8-10 7-7 4-6 4-7-8 6v3l-4 2-10 11h-2l-1 3-4 2-11 11-7 8-30 30-8 7-3 3h-7v-3l7-8 10-11 8-10 9-9 7-8 6-4 8-9 6-5 4-2 8 1 2-4 14-14 3-6 8-8 4-2 8 1 2-6 10-16z" fill="#9A7149"/>
<path transform="translate(1143,208)" d="m0 0 4 2 12 10 4 2 8 7 21 21 5 4 7 8 7 7 8 7 18 18 4-1 5-6 3 3-1 4-3 4 1 4 21 21 9 11 16 17 20 28 13 20 11 20 5 11 2 9-1 5 4 13v5l-2-2-11-32-3-9h-2l-12-22-10-15-10-14-11-14-5-5-12-14-7-7-7-8-7-7-8-10-4 2-6 7-3-1 3-6 4-6-7-8-39-39-8-7-2-4-4-2-30-30z" fill="#5C402A"/>
<path transform="translate(857,211)" d="m0 0 2 1-10 10-10 8-1 2 5 1-5 4h-2l-1 3-7 3-2 8-2 3h-2l-5 10-21 21-10 11 1 6 4 6 16 16 7 8 15 16 14 15 7 8 12 13 7 8 10 8 4 4-2 1-9-6-10-9-41-41-8-7-16-13-4-4v-2l-4-2-7-8-6-8-6-6 2-5 44-44 7-6 2-4 10-9 8-8 8-7z" fill="#F9DBB2"/>
<path transform="translate(781,778)" d="m0 0h2l2 3 3 9 14 13 7 8 21 21 11 9 13 12 17 13 21 12 21 10 21 7 24 6 22 3 18 1-1 5-17-1-30-5-24-7-16-6-18-8-16-9-21-14-10-9-8-7-9-9-8-7-39-39-4 2-10 9-7 7v2l-20 16-14 12-28 22-2-1 24-24 7-8 16-16 6-5 2-2 8-6 7-7 8-7 3-4z" fill="#F5D8B0"/>
<path transform="translate(1370,453)" d="m0 0 6 3 45 45 8 7 10 9 8 5 8 4 7 6v2l4-1 8 11 2 1v2l-43-1 4-3-10-9-5-6v-6l-4-3-1-4 1-3-7-8-13-13-7-8-12-14-10-14z" fill="#362117"/>
<path transform="translate(847,198)" d="m0 0 2 1-18 18-7 8-7 7-9 11-1 1v7l-20 20-3 5-11 12-7 6-7-4-6-8-10-10-8-10-12-14-14-15-10-11 1-2 15 12 14 11 12 11 14 11 11 10h2l8-7 47-47 8-7z" fill="#FEF2DC"/>
<path transform="translate(1199,297)" d="m0 0 5 1 7 3-1 4-10 11-9 11-9 9-7 8-17 17-7 8-23 23-7 9-1 2 5-3 10-9 18-18 2 1-7 8-25 25h-4l-4-7v-6l7-9 10-11 7-8 16-16 7-8 10-11 9-11 10-11z" fill="#FEF2D9"/>
<path transform="translate(636,451)" d="m0 0h2l-2 6-4 5-14 16-5 7-1 3 2 1-1 3-8 7-9 10-7 8-23 23-2 1-1 3 11 3v1h-44l1-2 8-4h2l1-6h8l9-9 8-7 29-29 7-8 8-8 4-1 13-12 1-2h2v-2l-2-1z" fill="#382319"/>
<path transform="translate(799,294)" d="m0 0 5 3 10 13 11 12 9 9 7 8 11 12 9 10 12 13 11 11 6 9-1 4-3 2-8-7-10-9-7-7-7-8-11-11-7-8-9-9-7-8-12-13-7-8-7-7-2-1-1-4z" fill="#FEF2D9"/>
<path transform="translate(1341,594)" d="m0 0 3 4v7l-4 17-2 11-8 22-13 28-14 23-16 21-9 10-7 8-9 10-7 8-9 9-11 9-4 1-1-4 7-9 11-9 16-17 7-8 9-10 10-13 9-13 12-21 8-16 10-23 7-22z" fill="#F3D4AC"/>
<path transform="translate(866,530)" d="m0 0 8 3 20 13 25 12 17 9 8 3-3 6-3 2-5-2-5-1-16-9-16-12-12-8-12-9-6-1-2 4-19 39-10 20-6 8-4 4-3-1 10-25 9-20 10-17 9-12 4-5z" fill="#F9DBB3"/>
<path transform="translate(1216,791)" d="m0 0 4 2-1 5-24 24-4 5-8 7-13 12-17 13-23 15-23 12-29 12-25 7-18 3-10 1h-20v-4l33-3 26-5 24-8 18-8 17-9 19-12 17-13 11-9 11-10 8-7 10-10 7-8 9-10z" fill="#FCF6EB"/>
<path transform="translate(1161,397)" d="m0 0 2 2 3 21 6 32 10 42 9 32 8 21 1 4h-4l-5-8-6-18-7-26-3-13-4-16-4-11-5-22-6-19v-2l-8 4-15 10-3-1-1-8h-2l-1-5h3l1 1 8-1 13-9z" fill="#FEF3DD"/>
<path transform="translate(1126,530)" d="m0 0 6 1 7 9 12 21 11 21 8 18 18 37-2 3-5-8-13-28-16-33-11-23-9-12-2-2-5 1-3 4 6-1 1 3-2 2-3 2-13 7-12 9-5 1-5 3-9 3-17 8h-2l-1 2-3-4v-2l-2-1 10-6 31-15 15-9z" fill="#FCFAF5"/>
<path transform="translate(995,179)" d="m0 0h3l-1 13-2 68-2-3-3-6-4-4h-4l-5 13-3 7-6 21-5 16-7 15-7 14-1-4 9-19 12-36 11-42 10-38 4-13z" fill="#FCFBF9"/>
<path transform="translate(1249,291)" d="m0 0 3 1 9 11 22 24 7 8 9 10 7 9 11 13 11 14 12 14 11 13 3 4-4-1-7-7-9-11-12-14-10-11-8-10-7-4-10-9-3-3v-2l-4-1-13-14-7-8-16-16 1-5z" fill="#FEF0D7"/>
<path transform="translate(840,397)" d="m0 0 4 2 13 12 8 5 5 1v2l4 1-1 4-2 3-4-1-10-5-12-8-3-1-2 12-4 22-10 39-6 26-5 20-5 12-7 10-2-1 3-10 11-33 11-40 7-30 4-23 2-17z" fill="#FEF2DC"/>
<path transform="translate(1221 1e3)" d="m0 0 4 1 1 3-1 7 2 2 1 4v66l-1 2-7 1-4-3v-68l3-5-2-7z" fill="#9B734B"/>
<path transform="translate(1120,189)" d="m0 0 5 3 14 12 41 41 16 15 37 37 1 3-5 6-4 8-7 1-6-1-5 4-2-1 6-8 4-6 1-5-6-9-12-11-7-7h3l3 3h2l2-5-17-17-6-1 3-2-35-35-8-7-9-8-6-5v-2l-3-1z" fill="#F8DAB0"/>
<path transform="translate(1091,922)" d="m0 0 2 1-2 5-10 9-14 14-8 7-8 8-7 8-7 4-9 10-8 8h-2l-2 4-6 7h-2l1-6 5-3 7-8-5 4-3 3h-2l2-6 8-10 28-28 4-5 16-16 10-7h2l-1 4-5 5-3 1v2l-8 7-13 14-1 2 8-7 13-13 8-7z" fill="#8A6441"/>
<path transform="translate(1303,220)" d="m0 0h2l-2 5-24 26-9 11-9 10-7 8-6 8h-2l-1 2-2-1-4-6-2-4h2l3-6 12-12 8-7 15-13 16-13z" fill="#F6D9B1"/>
<path transform="translate(782,280)" d="m0 0 2 1-13 13-1 6 8 8-2 1-10-7h-2l-7 9-8 8-9 11-14 15-7 8-13 14-13 17-12 18-9 16-2 2 1-7 1-4 1-6 13-18 7-10 8-10 7-7 9-11 16-17 11-12 9-10 7-7-1-4-1-2 4 1-1-5 5 2 8-5z" fill="#4E3524"/>
<path transform="translate(811,814)" d="m0 0 7 6 12 12 11 9 13 12 17 13 21 12 21 10 21 7 24 6 22 3 18 1-1 5-17-1-30-5-24-7-16-6-18-8-16-9-21-14-10-9-8-7-9-9-8-7-9-9-1-4z" fill="#FCE9CC"/>
<path transform="translate(875,426)" d="m0 0h1l-1 19-3 32-2 28-4 5-8 7-14 17-9 10-11 10-14 9-2 1h-6l-2-2v-3l8 1 9-6 3-1 2-4 15-15 11-14 8-10 7-11 3-15 2-15 2-18 3-22z" fill="#9E754E"/>
<path transform="translate(1012,605)" d="m0 0h1v8l-2 15-2 33-2 9-3-3-7-21-8-26-3-9v-4h5l7 3 4 13 4 4 4-17z" fill="#3C261A"/>
<path transform="translate(857,211)" d="m0 0 2 1-10 10-10 8-1 2 5 1-5 4h-2l-1 3-7 3-2 8-2 3h-2l-5 10-28 28-5 3-1-7-5 1 6-7 32-32 7-6 2-4 10-9 8-8 8-7z" fill="#F8DBB3"/>
<path transform="translate(699,220)" d="m0 0 20 15 11 9 11 10 14 11 11 10 1 3-9 8-7-6-8-8-8-10-12-14-14-15-10-11z" fill="#FEF0D6"/>
<path transform="translate(995,116)" d="m0 0h1l1 12-2 16-25 1-9 3 2 3-16 4-11 3h-3v2l-16 4-3-2 8-8 7-8 5-4 2 2 10-1 14-2 28-2 4-2 2-12z" fill="#FDEDB5"/>
<path transform="translate(894,884)" d="m0 0 5 1 21 9 19 6 21 5 20 3 17 1 2-4 1 2-2 6-4 41-2 2-1-4-2-27h2l-2-3-38-5-51-12 1-2 9-1 22 6 13 4 28 4 9 1h11l2-5-40-5-15-4-27-9-14-6z" fill="#9B724A"/>
<path transform="translate(1187,232)" d="m0 0 7 6 31 31 12 9 4 6 3 5-2 4-2 2-4-1-23-23-8-7-6-6-2-6-1-7-6-8-3-3z" fill="#FCFBF8"/>
<path transform="translate(620,546)" d="m0 0 8 1 2 4-4 4-7 1h-16l-21-1v-1h-12l-22-2-19-1-1 2-2-4 4-2h44z" fill="#997049"/>
<path transform="translate(993,72)" d="m0 0 3 1 1 4v10l-12 13-16 16-7 8-8 8-5 4-3 3-1-4 4-4h2l2-4 4-5-3-2 9-10 11-12 8-9 4-7 2-4z" fill="#FDEBB5"/>
<path transform="translate(988,78)" d="m0 0v3l-4 5-3 5-14 15-7 8-5 6 3 2-7 9-5 4 1 3 1 2 12 1v1l-14 2h-5l-5 1-3-2-9 9-7 8-2 2 4 1 5-2 3 1-9 4-11 3 2-5 24-24 5-7 4-8 39-39z" fill="#F8DBB1"/>
<path transform="translate(1204,299)" d="m0 0 7 2-1 4-10 11-9 11-9 9-7 8-17 17-7 8-12 12v-3l5-5 1-7 7-8 7-6 5-2 1-2 5-3 5-5v-6l6-9 8-10 8-9 3-2h8v-2l-4-2z" fill="#F9DBB2"/>
<path transform="translate(798,295)" d="m0 0 2 1v3l4 2 7 9 14 14 6 9 2 10 9 9 7 9 12 12-1 2-17-17-7-8-9-9-7-8-12-13-7-8-7-7-2-1-1-4z" fill="#F8DBB2"/>
<path transform="translate(873,533)" d="m0 0 12 7 11 7 23 11 17 9 8 3-3 6-3 2-5-2-5-1-16-9-16-12-12-8-1-4-4-2-6-5z" fill="#FDEFD6"/>
<path transform="translate(1054,574)" d="m0 0 2 1 2 11 1 14 5 20v11l-8 22-5 8-1-4 3-14v-68z" fill="#9B724B"/>
<path transform="translate(786,301)" d="m0 0h6v3l4 2 12 12 7 8 9 10 12 13 7 7 5 8 10 10 7 8 13 13 6 5-1 2-11-9-18-18-8-7-12-13-7-8-8-8-7-8-15-16-9-9z" fill="#523725"/>
<path transform="translate(566,555)" d="m0 0 5 3 4 2 8 11 10 11 8 10 9 10 10 12-2 2-7-8-3-3-5-3-12-13-6-7 5 8-1 2-13-13-9-11-5-5v-2l-4-2v-3h6z" fill="#976F48"/>
<path transform="translate(896,905)" d="m0 0h4l1 4 5 2 16 15 11 11 11 9 10 9 10 11 9 11 8 10-1 2-10-9-7-7-7-8-7-7-8-7-8-6-19-19-8-6v-3l-10-10z" fill="#997048"/>
<path transform="translate(753,292)" d="m0 0 6 2-2 1-1 4-4 1-9 10-6 13-12 14-7 7-9 2-7 6-2-1 14-15 9-11 11-11 7-8 10-13z" fill="#FEF2DA"/>
<path transform="translate(870,967)" d="m0 0h8l13 2v1h-20l-1 5 5-1 5 5 1 3v11l-3 6-5 4-5 1-1 7h-1v-28l2-13z" fill="#362118"/>
<path transform="translate(832,444)" d="m0 0h2l-2 17-6 24-6 26-5 20-5 12-7 10-2-1 3-10 11-33 11-40z" fill="#FEF4E0"/>
<path transform="translate(1134,500)" d="m0 0 1 3 4-1 7 9 10 16 11 13 6 7 7 5-1 2-9-3-2-1v-2l-6-2-10-13-18-24z" fill="#9F764E"/>
<path transform="translate(1094,903)" d="m0 0h5l1 4-1 2-11 1-14 4-26 5h-36l-2 14-2 1-1-2-1-16 44-2 26-5z" fill="#9A7149"/>
<path transform="translate(691,678)" d="m0 0 3 1 9 16 14 20 12 14 9 11 10 10 8 7 16 16v3l-4-2-12-12-11-9-18-18-13-17-12-18-10-18z" fill="#F6D8B0"/>
<path transform="translate(944,575)" d="m0 0 2 4v15l-2 23v21l2 16-2-2-3-9v-4h-3l-2-9v-12l5-37z" fill="#9B724B"/>
<path transform="translate(1191,328)" d="m0 0v3l-11 12-7 8-12 13-12 14-21 21-5 4h-3l2-5 14-15 20-20 7-8 17-17 8-7z" fill="#563B27"/>
<path transform="translate(1e3 111)" d="m0 0h1l2 26 7 2 9 1v1l-11 1 13 2h2v5l3-1v2h6l15 4 4 2-10-1-26-3h-7l-8-1-2-6 1-33z" fill="#EFD4AE"/>
<path transform="translate(1430,552)" d="m0 0h18l-1 3-11 9-11 12-1-2 4-6h2l1-5-5 5-10 9-7 6-1-3 9-11 6-8 1-3-1-1-7-1v-2z" fill="#3B251A"/>
<path transform="translate(1386,467)" d="m0 0 7 6 28 28 8 7 10 9 8 5 8 4 7 6v2l4-1 4 6h-10l-6-4-20-18-8-7-20-20-7-8-13-13z" fill="#9A7149"/>
<path transform="translate(1130,531)" d="m0 0 4 2 7 10 12 22 9 17 8 18 18 37-2 3-5-8-13-28-16-33-11-23-9-12-5-4z" fill="#F9DDB7"/>
<path transform="translate(1081,653)" d="m0 0h2v2l-16 7-8 5-8 10-19 38-12 26-8 16-4 10-2 1-1-5 7-19 3-1 8-15 8-18 20-38 9-9 14-7z" fill="#9A7149"/>
<path transform="translate(1079,925)" d="m0 0h2l-1 4-5 5-3 1v2l-8 7-13 14-8 7-10 9-11 11-2-1 4-6 25-25 4-5 16-16z" fill="#9F7750"/>
<path transform="translate(938,931)" d="m0 0 7 6 18 18 9 11 11 13 7 10 4 4-1 4-3-1-6-9-13-15-10-12-9-11-7-7-8-7-1-3z" fill="#9C744C"/>
<path transform="translate(1091,922)" d="m0 0 2 1-2 5-10 9-14 14-8 7-8 8-7 8-7 4-4 2 6-7 14-15 18-18 8-7z" fill="#F5EADB"/>
<path transform="translate(1055,899)" d="m0 0 4 1 2 1v2l-18 4-18 2h-20v-4l33-3z" fill="#FBE6C8"/>
<path transform="translate(991,154)" d="m0 0 7 1 4 1 2-2 26 2 14 1 21 6 5 2-3 1-20-5-14-2h-28v1h-10l-1-3h-3l-12 1h-11l-2-2 6-1z" fill="#F8DAB1"/>
<path transform="translate(993,447)" d="m0 0h2v14l-2 12-1 26-2 8-1 10h-2l-1-2v-12l5-52z" fill="#FEF1D8"/>
<path transform="translate(822,243)" d="m0 0 2 1-17 16-35 35-3 4 1-5 13-13-7 6-4 4-2-1 10-10 7-8 13-13 6-2 11-10z" fill="#997049"/>
<path transform="translate(873,533)" d="m0 0 12 7 11 7 23 11v5l-6-1-8-4-1 2-21-15v-3l-4-2-6-5z" fill="#FDF7EE"/>
<path transform="translate(903,1041)" d="m0 0 4 1 1 11-6 21-7-2-1-3 5-16 3-11z" fill="#3C261B"/>
<path transform="translate(803,576)" d="m0 0h1l-1 13-5 26-1 11v24l5-1-1 3h-5l-2-5-1-7v-22l5-26 4-15z" fill="#9E764E"/>
<path transform="translate(870,213)" d="m0 0v3l-11 10-11 9-12 11-8 7-9 9-1-3 4-5h2l2-7 2-5 7-3 4-4 12-6 14-12z" fill="#FEF2DA"/>
<path transform="translate(1212,280)" d="m0 0 6 5v2h2v2l4 2 8 8-4 6-3 4-5-2v-2h-2l1-8-5-5-3-2z" fill="#FDEDB5"/>
<path transform="translate(1136,882)" d="m0 0 2 1-13 12-2 4-11 9-12 11-7 7h-2v-3l-6 6-2-1 16-16 6-4 14-12 11-9z" fill="#97704A"/>
<path transform="translate(1276,745)" d="m0 0 2 1-10 13-13 15-12 14-4 3-4-2 2-4 14-14 8-7 7-8z" fill="#966E47"/>
<path transform="translate(855,357)" d="m0 0 4 2 15 16 10 10 6 9-1 4-3 2-5-4-1-4-3-3-6-12-13-15z" fill="#FDFCFA"/>
<path transform="translate(1e3 145)" d="m0 0h1l1 5 30 5 8 2v1l-39-3-2 2-4-1-7-1-19 1 4-2 8-2-2-2 12-1 4-1-1 4 6 1z" fill="#8E6844"/>
<path transform="translate(1216,791)" d="m0 0 4 2-1 5-24 24-4 5-2-1 2-7 8-8 7-8 9-10z" fill="#FDEDD2"/>
<path transform="translate(1338,632)" d="m0 0 1 2-7 21-10 24-8 13-13 19-12 16-4 3 2-4 15-20 12-20 8-16 9-20 6-17z" fill="#9A7149"/>
<path transform="translate(1196,576)" d="m0 0 2 2 9 27 3 19-2 10-2-4-8-40-2-8z" fill="#A27A52"/>
<path transform="translate(914,652)" d="m0 0 19 9 10 7 7 8 13 23 8 16 8 14 2-3 3 9-4-1-9-14-12-23-8-14-9-13-9-6-19-9z" fill="#9A7149"/>
<path transform="translate(832,444)" d="m0 0h2l-2 17-6 24-5 22-2 1-1-2-2 1 4-16 8-30z" fill="#FEF6E5"/>
<path transform="translate(1045,319)" d="m0 0 3 1 13 22 12 17 13 17 8 10 4 6-4-2-5-6-4-4-7-10-8-11-2-4h-2l-9-12-10-18z" fill="#FDFCFC"/>
<path transform="translate(634,541)" d="m0 0 2 1 2 11 3 26 2 13v12l-2-3-3-16-2-15-2-13-2-4v-7l-2-4z" fill="#9A7149"/>
<path transform="translate(1213,291)" d="m0 0 5 3 2 3-1 5-1 3h2l3 3 2 1 2-4 5-4-2 4-5 9-7 1-6-1-5 4-2-1 6-8 4-6 1-5-3-5z" fill="#F9DBB2"/>
<path transform="translate(944,900)" d="m0 0 14 1 22 3 18 1-1 5-17-1-20-3-9-3-7-2z" fill="#FCEFD9"/>
<path transform="translate(1302,351)" d="m0 0 5 4 9 11 13 16 9 11 13 15 3 4-4-1-7-7-9-11-12-14-10-11-4-8-6-7z" fill="#FDFAF5"/>
<path transform="translate(1230,274)" d="m0 0 5 2 9 12-1 4-3 3-4-1-5-6-6-7-1-2h8z" fill="#FEF2DA"/>
<path transform="translate(1e3 45)" d="m0 0 4 2 6 7 2 14 4 6-1 2-13-13-1-2z" fill="#F5D8AF"/>
<path transform="translate(1096,560)" d="m0 0 2 1-13 11-17 11-1 6-2-1-1-10 10-6z" fill="#9D744D"/>
<path transform="translate(1178,251)" d="m0 0h6l18 18-3 6-4-2-8-6-1-6-6-8z" fill="#FDEDB5"/>
<path transform="translate(1013,221)" d="m0 0h2l10 40 4 14-2 1-6-15-5-15-3-12z" fill="#FDFCFA"/>
<path transform="translate(1303,220)" d="m0 0h2l-2 5-12 13-9 10h-2l-2-6 10-10 11-9z" fill="#F9E9CE"/>
<path transform="translate(1069,1009)" d="m0 0 6 1 9 6 3 6v18l-3 13-7 11-9 7v-3l7-6 6-10 3-9v-21l-3-5-8-4-10-1 3-2z" fill="#5C3F2A"/>
<path transform="translate(988,78)" d="m0 0v3l-11 12-9 10-14 15-9 9-5 6-1-3 6-8 36-36z" fill="#835F3E"/>
<path transform="translate(1019,60)" d="m0 0 7 6 14 15 12 13 16 16 7 8 8 8-1 2-5-4-7-8-21-21-7-8-7-7-7-8-9-10z" fill="#FFF3DB"/>
<path transform="translate(1144,225)" d="m0 0 4 2 8 7 12 12 12 6 4 5 4 6v3l-5-2-27-27-8-7z" fill="#FEF2DA"/>
<path transform="translate(995,116)" d="m0 0h1l1 12-2 16h-29l-1-2 10-2 13-1 4-2 2-12z" fill="#FEF0D7"/>
<path transform="translate(1200,304)" d="m0 0h5l-2 5-4 6-5 4h-2l-1 2-2 3-3 3-1-2-3-1 7-9 8-9z" fill="#FDEDB5"/>
<path transform="translate(1191,270)" d="m0 0 8 4 2-4 4 2 7 7 1 5-2 5-8-6-12-12z" fill="#F9DDB2"/>
<path transform="translate(781,288)" d="m0 0h2l2 6 4-2-4 7-2-1v7l-5-1-6-5v-5l5-5z" fill="#FEF3DD"/>
<path transform="translate(971,272)" d="m0 0 1 3-8 26-7 17-8 15-1-4 9-19 12-36z" fill="#FDFCFA"/>
<path transform="translate(1053,948)" d="m0 0 3 2-10 11-4 5-8 7-12 12-2-1 4-6 25-25z" fill="#F3DAB8"/>
<path transform="translate(779,788)" d="m0 0 4 2 42 42h-3l-40-40h-4l-7 6-1 3-5 3 1 2-7 2 6-7 9-9z" fill="#9A7149"/>
<path transform="translate(584,575)" d="m0 0 6 4 12 14 14 16 4 6-2 1-7-8-12-12-9-11-6-8z" fill="#FCF6EC"/>
<path transform="translate(1088,889)" d="m0 0 6 1-1 2-21 8-7 2-6-1-1-2z" fill="#FCF2E3"/>
<path transform="translate(1253,814)" d="m0 0 7 6 11 12 7 8 16 13 3 4-4-2-11-9-12-11-13-12-4-4-1-4z" fill="#A37C56"/>
<path transform="translate(1130,531)" d="m0 0 4 2 7 10 18 33-1 5-3-4-14-29-9-12-5-4z" fill="#F9DCB5"/>
<path transform="translate(1054,130)" d="m0 0h6l5 7-1 6-2 1h-7l-2-7-1-4z" fill="#F9DBB2"/>
<path transform="translate(1161,397)" d="m0 0 2 4-1 5-10 5-4 4-2 4-6 1-2-4 13-9z" fill="#FDFBF8"/>
<path transform="translate(918,890)" d="m0 0 31 9 5 1v1h-7l12 3-4 1-23-6-17-6v-2z" fill="#FAE1BE"/>
<path transform="translate(1091,560)" d="m0 0 4 1-6 4-9 3-17 8h-2l-1 2-3-4v-2l-2-1h3v2l8-4 21-7z" fill="#FEF1D9"/>
<path transform="translate(995,46)" d="m0 0h2v14l-3 6-10 12v-3l3-4 1-9 3-5 2-1z" fill="#F9DDB8"/>
<path transform="translate(976,1033)" d="m0 0 3 1-1 6v35l-2 13-1 2h-2l1-5z" fill="#412B1D"/>
<path transform="translate(1366,428)" d="m0 0 4 2 8 8 9 11 7 7 7 8 9 10v2h-2l-7-8-8-8-8-10-16-17-3-3z" fill="#FEF0D6"/>
<path transform="translate(1153,373)" d="m0 0 2 1-7 8-25 25h-4l-1-6 3-2-1 4 5-3 10-9z" fill="#F9DBB2"/>
<path transform="translate(1274,741)" d="m0 0v3l-11 12-7 8-9 9-11 9-2 2h-4l-2-6 2-4 5-2-4 6v3l4-1 15-13 10-10 7-8z" fill="#9A7149"/>
<path transform="translate(1019,738)" d="m0 0 1 3-8 16-4 10-2 1-1-5 7-19 3-1z" fill="#9C744C"/>
<path transform="translate(789,804)" d="m0 0 4 2 13 12 12 13v2l-4-2-13-12-5-5-7-9z" fill="#9A7149"/>
<path transform="translate(1240,303)" d="m0 0 7 6 7 7 7 8 12 13 9 10 6 7-1 2-5-6-5-5-15-16-9-10-13-14z" fill="#9A7149"/>
<path transform="translate(1255,298)" d="m0 0h2l9 11 8 8 7 8 11 12 5 6-1 2-11-11-9-11-8-8-7-8-6-8z" fill="#FDFCFA"/>
<path transform="translate(940,157)" d="m0 0 3 1-1 1 16-1v1l-18 4-18 6-2-1 7-4-2-2z" fill="#A27A53"/>
<path transform="translate(887,877)" d="m0 0 5 1 21 10 5 2-1 2-7-1-18-8-5-3z" fill="#FDF3E2"/>
<path transform="translate(843,965)" d="m0 0 12 1 1 1v42h-1l-1-18-2-22-9-3z" fill="#422B1E"/>
<path transform="translate(1338,609)" d="m0 0h1l-1 10-4 15-10 23-6 12-1-3 8-17 9-25z" fill="#A6815D"/>
<path transform="translate(994,419)" d="m0 0 2 2 1 10 1 1-1 18h-2v-3h-2l-1 2 1-18z" fill="#F9DDB7"/>
<path transform="translate(1062,952)" d="m0 0 2 1-13 13-7 8-7 4-4 2 6-7 9-10 6-4 7-6z" fill="#C7AA8A"/>
<path transform="translate(1087,159)" d="m0 0 5 2 8 8 2 5-4-1-13-7z" fill="#FDEBCE"/>
<path transform="translate(1032,980)" d="m0 0 3 1-15 15h-2l-2 4-6 7h-2l1-6 5-3 9-11z" fill="#9D754D"/>
<path transform="translate(925,148)" d="m0 0 2 1-12 13 4 1 5-2 3 1-9 4-11 3 2-5z" fill="#FAE0BD"/>
<path transform="translate(1027,903)" d="m0 0h11v1l-18 2 5 2v1h-20v-4z" fill="#F9E0BC"/>
<path transform="translate(716,838)" d="m0 0 5 2-5 5-18 14-2-1z" fill="#EFD7B8"/>
<path transform="translate(845,360)" d="m0 0 7 6 9 9 7 8 7 7 8 7 3 2-1 3-7-6-20-20-7-8-6-6z" fill="#9A7149"/>
<path transform="translate(1021,148)" d="m0 0h10v2h6l15 4 4 2-10-1-32-4v-1z" fill="#E8C9A0"/>
<path transform="translate(689,681)" d="m0 0 3 3 11 20 10 15-2 1-10-14-7-11-5-11z" fill="#342017"/>
<path transform="translate(1326,382)" d="m0 0 5 3 10 11 9 11 4 5-4-1-7-7-9-11-8-9z" fill="#FFF3DB"/>
<path transform="translate(825,233)" d="m0 0 2 1-25 25-8 7-7 7v-3l19-19 8-7z" fill="#F9DBB3"/>
<path transform="translate(944,900)" d="m0 0 14 1 16 3v3h5v1l-13-1-7-2-15-4z" fill="#FDEBCF"/>
<path transform="translate(1076,936)" d="m0 0m-1 1m-1 1m-1 1m-2 1 2 1-2 2v4l-6 5-5 3-6 5v-3z" fill="#EFDECA"/>
<path transform="translate(1110,879)" d="m0 0 3 1-2 4-16 7-5-2 3-2z" fill="#FDF7EE"/>
<path transform="translate(1129,377)" d="m0 0 2 1-6 8-4 6-2 11-3-1-1-2v-6l7-9z" fill="#FDFBF9"/>
<path transform="translate(798,573)" d="m0 0m-2 1 2 1v1h2l-1 7-2 1-2-1h-6l-5 4 1-5z" fill="#FEEEB6"/>
<path transform="translate(1040,966)" d="m0 0m-1 1m-1 1m-1 1m-1 1m-1 1m-1 1m-1 1m-1 1m-1 1m-1 1m-1 1m-1 1m-1 1m-1 1m-5 1 1 3 3-2-2 4-7 8-3 3h-2l2-6z" fill="#9B724A"/>
<path transform="translate(786,301)" d="m0 0h6v3l4 2 12 12-1 2-13-13h-2l11 11-1 2-14-14z" fill="#9C744C"/>
<path transform="translate(974,94)" d="m0 0v3l-10 10-7 8-12 12-5 6-1-3 21-21 7-8z" fill="#9C734B"/>
<path transform="translate(1069,1009)" d="m0 0 6 1 9 6 3 6v18h-1l-1-16-4-7-8-4-10-1 3-2z" fill="#3C271B"/>
<path transform="translate(1217,784)" d="m0 0h1l2 6 2 2v5l-27 27v-3l24-24v-4l-2-1z" fill="#9A7149"/>
<path transform="translate(1221 1e3)" d="m0 0 4 1 1 3-1 8h-7v-3l-1-6z" fill="#422B1E"/>
<path transform="translate(1081,1065)" d="m0 0 1 3-9 9-10 6-6 1 3-3 9-6z" fill="#3D271B"/>
<path transform="translate(1045,902)" d="m0 0m-7 1h7v2l-9 2-1 1h-12l-7-1 4-2z" fill="#FDF0D7"/>
<path transform="translate(662,623)" d="m0 0 3 1 8 22 6 12-1 2-6-10-7-16z" fill="#342017"/>
<path transform="translate(964,706)" d="m0 0 3 1 9 17 3 5 2-3 3 9-4-1-9-14z" fill="#9A7149"/>
<path transform="translate(1019,60)" d="m0 0 7 6 14 15 9 10h-3l-11-11-7-8-9-10z" fill="#FEF2D8"/>
<path transform="translate(1016,152)" d="m0 0 13 2 14 3v1l-13-1-21-2-1-2z" fill="#9C734B"/>
<path transform="translate(1260,258)" d="m0 0v3l-14 13-4 2v-3l12-12 5-2z" fill="#FDEBB7"/>
<path transform="translate(857,211)" d="m0 0 2 1-10 10-10 8-9 9-2-1 15-15 8-7z" fill="#CFAD86"/>
<path transform="translate(1006,70)" d="m0 0 4 2 10 11 5 6-1 2-12-13-4-4-1 14h-1z" fill="#F9DFBB"/>
<path transform="translate(967,919)" d="m0 0h8l14 2 2 4-26-4z" fill="#412A1D"/>
<path transform="translate(1108,905)" d="m0 0m-1 1m-1 1m-1 1m-1 1m-1 1m-2 1h2l-2 4-7 7-5 3-4 4-2-1 16-16z" fill="#B4926F"/>
<path transform="translate(1037,467)" d="m0 0 2 3 2 9v8l-2-2-1 5h-1l-1-22z" fill="#F9DBB2"/>
<path transform="translate(853,374)" d="m0 0 7 6 14 14 8 7h-3l-13-11-7-8-6-6z" fill="#9A7149"/>
<path transform="translate(1024,391)" d="m0 0h2l2 6 2 15-2 3-2-7-2-12z" fill="#F7D9B0"/>
<path transform="translate(1216,791)" d="m0 0 4 2-1 5-10 10v-3l5-7v-4z" fill="#F9DCB4"/>
<path transform="translate(824,477)" d="m0 0h1l-1 13-4 14h-2l1-9z" fill="#FDFCFB"/>
<path transform="translate(1125,538)" d="m0 0 4 1v2l-2 2-3 2-5 1-4-2 2-2 2 1-1-3 3-1z" fill="#F7DBB5"/>
<path transform="translate(1389,453)" d="m0 0 4 2 9 10 8 9v2h-2l-7-8-8-8-4-5z" fill="#FEF0D7"/>
<path transform="translate(1211,302)" d="m0 0h5l-4 7-9 8v-3l3-3 1-4z" fill="#745336"/>
<path transform="translate(1144,203)" d="m0 0 5 3 16 16h-3l-10-9-8-8z" fill="#F2D5AA"/>
<path transform="translate(765,303)" d="m0 0 4 2v3l-9 6h-2l1-4z" fill="#F9DBB2"/>
<path transform="translate(816,253)" d="m0 0 2 1v9l-6 5-2-1-1 2 1-4 5-7z" fill="#FDEDBA"/>
<path transform="translate(843,1072)" d="m0 0h5l1 6-1 2-8-1z" fill="#4E3524"/>
<path transform="translate(1207,578)" d="m0 0 4 2 5 8 3 8h-2l-7-11-3-4z" fill="#FEF3DC"/>
<path transform="translate(1395,597)" d="m0 0 3 2-8 9-8 6v-3l10-10z" fill="#F0D8B7"/>
<path transform="translate(1130,531)" d="m0 0 4 2 7 10 3 6-4-2-8-11-5-4z" fill="#F9E1C0"/>
<path transform="translate(699,220)" d="m0 0 16 12-1 2-6-2-9-10z" fill="#FBF3E8"/>
<path transform="translate(967,97)" d="m0 0v3l-17 17-2-2 7-7 8-7z" fill="#C29D75"/>
<path transform="translate(937,585)" d="m0 0 1 4-3 7-4 4h-2l1-8h3v-2h2z" fill="#FEF2DA"/>
<path transform="translate(959,156)" d="m0 0 5 1-4 3-19 4-10 2 2-2 19-5 5-1z" fill="#EDCFA7"/>
<path transform="translate(973,714)" d="m0 0h3l5 12-2 4-5-9v-4z" fill="#F7D9B1"/>
<path transform="translate(584,575)" d="m0 0 6 4 7 8-1 2h-3l-9-12z" fill="#F8E1C2"/>
<path transform="translate(1144,225)" d="m0 0 4 2 8 7 10 10-1 2-9-9-8-7z" fill="#FEF2D6"/>
<path transform="translate(1402,600)" d="m0 0h3l-2 4-10 10-2-1 3-5z" fill="#C4A585"/>
<path transform="translate(1182,558)" d="m0 0 14 2 6-1-2 4-4 1-10-3z" fill="#9F774F"/>
<path transform="translate(1179,489)" d="m0 0 2 1 6 23-2 1-6-21z" fill="#FDFCFB"/>
<path transform="translate(853,1055)" d="m0 0 2 2v12l1 9-3-3-1-9z" fill="#452E1F"/>
<path transform="translate(640,556)" d="m0 0h1l2 24-3-1-1-6v-9z" fill="#533826"/>
<path transform="translate(1046,158)" d="m0 0 16 4 8 3-3 1-20-5-2-2z" fill="#F9DBB2"/>
<path transform="translate(1055 1e3)" d="m0 0h7l-1 5-1 2h-2l-1-2-6-1z" fill="#3F291C"/>
<path transform="translate(940,898)" d="m0 0 9 1 5 1v1h-7l12 3-4 1-16-4z" fill="#F9DBB2"/>
<path transform="translate(1111,545)" d="m0 0 2 1 1 4-7 5h-2l1-6z" fill="#FDF0D9"/>
<path transform="translate(981,79)" d="m0 0v3l-9 12-3 2-1-3 9-9z" fill="#E1C198"/>
<path transform="translate(989,158)" d="m0 0 6 3 9 1v1l-24 1v-1l7-1-3-2z" fill="#F9DBB2"/>
<path transform="translate(995,116)" d="m0 0h1l1 12-1 9-4 1 2-13z" fill="#FCF7EF"/>
<path transform="translate(711,846)" d="m0 0 2 1-15 12-2-1 11-11z" fill="#AE8B68"/>
<path transform="translate(1033,970)" d="m0 0 2 2-13 13-2-1 4-6 5-3z" fill="#F2D4AD"/>
<path transform="translate(1303,220)" d="m0 0h2l-2 5-7 8-1-3 4-7z" fill="#E6CCAC"/>
<path transform="translate(798,573)" d="m0 0m-2 1 2 1-4 4-4 2-5 6-1-4 9-7z" fill="#FBE5BB"/>
<path transform="translate(930,567)" d="m0 0 9 1 5 2-3 3-6-2-5-3z" fill="#FDFBF8"/>
<path transform="translate(944,900)" d="m0 0 14 1 4 2-1 2 4 1h-5l-9-3-7-2z" fill="#FDECD1"/>
<path transform="translate(1233,772)" d="m0 0 2 1-4 5v3l4-1 3-2-2 4-2 2h-4l-2-6 2-4z" fill="#9F7750"/>
<path transform="translate(1126,530)" d="m0 0h4v2l-5 3-3 4-4-1 1-3z" fill="#FDF9F1"/>
<path transform="translate(636,451)" d="m0 0h2l-2 6-3 3h-2v-2l-2-1zm-7 9 2 1-2 1z" fill="#362218"/>
<path transform="translate(993,73)" d="m0 0h3l1 4v9l-2-4v-3l-2 1-2-1 1-5z" fill="#FCF1DF"/>
<path transform="translate(1094,903)" d="m0 0h5l1 4-1 2-5-1-2-2z" fill="#C7AC8F"/>
<path transform="translate(609,602)" d="m0 0 5 5 6 8-2 1-7-8-4-5z" fill="#FBEBD5"/>
<path transform="translate(1158,578)" d="m0 0h2l5 12-5-2-2-4z" fill="#FBF2E6"/>
<path transform="translate(1143,208)" d="m0 0 4 2 11 9-2 3-13-13z" fill="#946C46"/>
<path transform="translate(1039,161)" d="m0 0 11 1 7 3-4 1-10-2z" fill="#F9DBB2"/>
<path transform="translate(887,877)" d="m0 0 5 1 6 3-2 1v2l-5-2-4-2z" fill="#FDEED4"/>
<path transform="translate(1280,843)" d="m0 0 4 2 10 8 3 4-4-2-11-9z" fill="#A27A52"/>
<path transform="translate(564,559)" d="m0 0 4 1 10 12-1 2-13-14z" fill="#342017"/>
<path transform="translate(1130,394)" d="m0 0 2 1-9 8h-3l2-5 4-3 1 2z" fill="#976E47"/>
<path transform="translate(762,277)" d="m0 0h5l-5 6-5 3v-3z" fill="#9C754E"/>
<path transform="translate(963,958)" d="m0 0 4 2 9 11h-3l-10-11z" fill="#DFBF98"/>
<path transform="translate(1084,171)" d="m0 0 9 2 8 4-1 2-6-2-10-5z" fill="#EDCEA5"/>
<path transform="translate(907,886)" d="m0 0 9 3 2 1-1 2-7-1-5-2z" fill="#FCECD4"/>
<path transform="translate(1213,291)" d="m0 0 5 3 2 3-1 5-3 1-1-7z" fill="#F0D1A8"/>
<path transform="translate(997,109)" d="m0 0h1l1 9-1 8-2-4v-12z" fill="#A8835D"/>
<path transform="translate(931,895)" d="m0 0 10 2-2 3-7-1z" fill="#FAE7CC"/>
<path transform="translate(994,419)" d="m0 0 2 2 1 11-3 3-1-4z" fill="#FDF0DA"/>
<path transform="translate(968,94)" d="m0 0 2 3-5 3-8 8-2-1z" fill="#F6D8B1"/>
<path transform="translate(1091,922)" d="m0 0 2 1-2 5-6 4 1-5z" fill="#E7D1B6"/>
<path transform="translate(764,301)" d="m0 0 3 1-6 7-4 2 6-9z" fill="#9A7149"/>
<path transform="translate(870,213)" d="m0 0v3l-11 10-2-1 10-10z" fill="#FEF2D7"/>
<path transform="translate(951,153)" d="m0 0m-4 1 4 1-8 3-10 1 3-2z" fill="#F9DBB2"/>
<path transform="translate(1016,152)" d="m0 0 6 1-1 2h-12l-1-2z" fill="#966E47"/>
<path transform="translate(1079,1058)" d="m0 0v3l-5 5-6 5v-3l7-6z" fill="#3E281C"/>
<path transform="translate(1060,951)" d="m0 0h2l-2 4-6 5v-3z" fill="#FCF8F2"/>
<path transform="translate(1038,511)" d="m0 0h1l1 13 3 2-4 3-1-1z" fill="#EBCBA3"/>
<path transform="translate(1231,303)" d="m0 0v3l3-1-2 4-3 3-3-1 3-6z" fill="#9A7149"/>
<path transform="translate(801,260)" d="m0 0 3 1-9 9-2-1 7-8z" fill="#342017"/>
<path transform="translate(980,155)" d="m0 0m-10 0 10 1-1 2h-11l-2-2z" fill="#EBCBA3"/>
<path transform="translate(1007,1037)" d="m0 0 1 2-2 6-1 9h-1l-1-6 2-10z" fill="#3F291C"/>
<path transform="translate(1e3 946)" d="m0 0h1l1 15-3-3v-9z" fill="#9A7149"/>
<path transform="translate(1064,897)" d="m0 0h6v2l-7 2-2 1-3-3z" fill="#FDF9F0"/>
<path transform="translate(980,726)" d="m0 0 3 4 1 5-4-1-3-5h2z" fill="#A17A53"/>
<path transform="translate(691,678)" d="m0 0 3 1 5 9-1 2-4-4z" fill="#CEAB83"/>
<path transform="translate(698,354)" d="m0 0 3 1-9 9-2-1z" fill="#FCEABE"/>
<path transform="translate(907,553)" d="m0 0 10 4 1 3-5-1-6-4z" fill="#FCEFD9"/>
<path transform="translate(1452,553)" d="m0 0m-1 1m-1 1m-1 1m-1 1m-1 1m-1 1m-1 1m-1 1m-1 1 1 3-6 5-2-1z" fill="#3B261A"/>
<path transform="translate(1366,428)" d="m0 0 4 2 6 7-4-1-6-6z" fill="#FEF5E2"/>
<path transform="translate(1205,273)" d="m0 0 7 6v1h-7v-3l-1-3z" fill="#FEEEB6"/>
<path transform="translate(851,979)" d="m0 0 1 4-2-1z" fill="#5C402B"/>
<path transform="translate(912,926)" d="m0 0h2l-1 2z" fill="#9A7149"/>
<path transform="translate(1248,785)" d="m0 0" fill="#9A7149"/>
<path transform="translate(801,1079)" d="m0 0" fill="#F9DBB2"/>
<path transform="translate(844,1070)" d="m0 0" fill="#9A7149"/>
<path transform="translate(917,931)" d="m0 0" fill="#9A7149"/>
<path transform="translate(916,930)" d="m0 0" fill="#9A7149"/>
<path transform="translate(915,929)" d="m0 0" fill="#9A7149"/>
<path transform="translate(914,928)" d="m0 0" fill="#9A7149"/>
<path transform="translate(936,918)" d="m0 0" fill="#9A7149"/>
<path transform="translate(695,859)" d="m0 0" fill="#F9DBB2"/>
<path transform="translate(1297,857)" d="m0 0" fill="#9A7149"/>
<path transform="translate(1205,827)" d="m0 0" fill="#9A7149"/>
<path transform="translate(1206,826)" d="m0 0" fill="#9A7149"/>
<path transform="translate(1207,825)" d="m0 0" fill="#9A7149"/>
<path transform="translate(1208,824)" d="m0 0" fill="#9A7149"/>
<path transform="translate(1209,823)" d="m0 0" fill="#9A7149"/>
<path transform="translate(1210,822)" d="m0 0" fill="#9A7149"/>
<path transform="translate(1211,821)" d="m0 0" fill="#9A7149"/>
<path transform="translate(1212,820)" d="m0 0" fill="#342017"/>
<path transform="translate(1213,819)" d="m0 0" fill="#342017"/>
<path transform="translate(1214,818)" d="m0 0" fill="#342017"/>
<path transform="translate(1215,817)" d="m0 0" fill="#342017"/>
<path transform="translate(1216,816)" d="m0 0" fill="#342017"/>
<path transform="translate(1217,815)" d="m0 0" fill="#9A7149"/>
<path transform="translate(1249,784)" d="m0 0" fill="#9A7149"/>
<path transform="translate(1250,783)" d="m0 0" fill="#9A7149"/>
<path transform="translate(1413,596)" d="m0 0" fill="#9A7149"/>
</svg>
